HIERARCHY
ROOT Hips
{
	OFFSET 0.000000 0.000000 0.000000
	CHANNELS 6 Xposition Yposition Zposition Yrotation Xrotation Zrotation
	JOINT Chest
	{
		OFFSET 0.000000 -0.009281 11.569106
		CHANNELS 3 Yrotation Xrotation Zrotation
		JOINT Chest2
		{
			OFFSET -0.000000 0.016865 9.269641
			CHANNELS 3 Yrotation Xrotation Zrotation
			JOINT Chest3
			{
				OFFSET -0.000000 0.000001 8.374491
				CHANNELS 3 Yrotation Xrotation Zrotation
				JOINT Chest4
				{
					OFFSET -0.000000 0.000001 8.374493
					CHANNELS 3 Yrotation Xrotation Zrotation
					JOINT Neck
					{
						OFFSET -0.000000 0.000002 12.152554
						CHANNELS 3 Yrotation Xrotation Zrotation
						JOINT Head
						{
							OFFSET -0.000000 0.040101 7.802319
							CHANNELS 3 Yrotation Xrotation Zrotation
							End Site
							{
								OFFSET -0.000000 0.020947 14.853096
							}
						}
					}
					JOINT RightCollar
					{
						OFFSET 2.894404 0.000001 6.791374
						CHANNELS 3 Yrotation Xrotation Zrotation
						JOINT RightShoulder
						{
							OFFSET 13.574684 0.000001 0.000000
							CHANNELS 3 Yrotation Xrotation Zrotation
							JOINT RightElbow
							{
								OFFSET 23.923903 0.000002 0.000000
								CHANNELS 3 Yrotation Xrotation Zrotation
								JOINT RightWrist
								{
									OFFSET 19.846718 0.012767 0.000000
									CHANNELS 3 Yrotation Xrotation Zrotation
									End Site
									{
										OFFSET 14.973145 0.000001 0.000000
									}
								}
							}
						}
					}
					JOINT LeftCollar
					{
						OFFSET -2.894404 0.000001 6.791374
						CHANNELS 3 Yrotation Xrotation Zrotation
						JOINT LeftShoulder
						{
							OFFSET -13.574684 -0.000001 0.000000
							CHANNELS 3 Yrotation Xrotation Zrotation
							JOINT LeftElbow
							{
								OFFSET -23.923903 -0.000002 0.000000
								CHANNELS 3 Yrotation Xrotation Zrotation
								JOINT LeftWrist
								{
									OFFSET -19.846718 0.012763 0.000000
									CHANNELS 3 Yrotation Xrotation Zrotation
									End Site
									{
										OFFSET -14.973145 -0.000001 0.000000
									}
								}
							}
						}
					}
				}
			}
		}
	}
	JOINT RightHip
	{
		OFFSET 9.469263 0.004643 0.045487
		CHANNELS 3 Yrotation Xrotation Zrotation
		JOINT RightKnee
		{
			OFFSET 0.000000 0.002661 -40.478676
			CHANNELS 3 Yrotation Xrotation Zrotation
			JOINT RightAnkle
			{
				OFFSET 0.000000 0.049106 -35.224068
				CHANNELS 3 Yrotation Xrotation Zrotation
				JOINT RightToe
				{
					OFFSET -0.000001 12.539529 -6.151390
					CHANNELS 3 Yrotation Xrotation Zrotation
					End Site
					{
						OFFSET -0.000001 5.044994 -1.291870
					}
				}
			}
		}
	}
	JOINT LeftHip
	{
		OFFSET -9.469263 0.004641 0.045487
		CHANNELS 3 Yrotation Xrotation Zrotation
		JOINT LeftKnee
		{
			OFFSET 0.000000 0.002661 -40.478676
			CHANNELS 3 Yrotation Xrotation Zrotation
			JOINT LeftAnkle
			{
				OFFSET 0.000000 0.049106 -35.224068
				CHANNELS 3 Yrotation Xrotation Zrotation
				JOINT LeftToe
				{
					OFFSET -0.000001 12.539529 -6.151390
					CHANNELS 3 Yrotation Xrotation Zrotation
					End Site
					{
						OFFSET -0.000001 5.044994 -1.291870
					}
				}
			}
		}
	}
}
MOTION
Frames: 12
Frame Time: 0.016667
69.196251 -15.626161 84.115631 -0.518878 -2.072950 -109.505834 -2.504527 0.705635 -0.253518 -1.313015 0.222669 -0.233769 -1.313015 0.222669 -0.233768 -0.984674 0.167505 -0.174850 1.328016 -15.865980 -1.152507 2.052745 6.725389 -1.661449 9.223971 0.484675 -3.901813 61.462864 -29.242905 -17.482322 49.681427 -73.801048 27.860080 -13.802031 17.086118 36.869501 -9.612364 0.557650 -6.323987 -56.044738 -23.505895 16.827093 -86.278874 -55.638489 2.450652 10.521455 18.521764 -24.716402 1.095981 10.476166 -14.741830 3.657633 -3.888206 -19.568876 6.185477 -2.412786 0.457633 -0.644430 -0.004587 -0.622641 4.204844 -14.025641 -0.504269 -0.136131 -11.409154 14.082739 11.159801 -10.920218 4.549801 -24.395549 31.299970 -6.436606 
69.498161 -16.013948 84.093262 -0.291399 -1.894738 -109.808822 -2.512153 0.786351 -0.314571 -1.316650 0.232764 -0.285691 -1.316650 0.232764 -0.285692 -0.987378 0.175190 -0.213766 1.176697 -15.855255 -0.892472 1.865977 6.743403 -1.232212 9.185672 0.489354 -3.842154 61.377904 -29.116366 -17.572369 49.018782 -74.035631 28.539495 -13.569776 17.005662 36.719708 -9.692762 0.555491 -6.245245 -56.194022 -23.519138 17.055174 -86.222751 -55.622260 2.452307 10.756124 18.558447 -24.836299 1.201319 10.422805 -13.963714 3.755813 -3.833487 -19.882129 6.382038 -1.977639 0.477321 -0.741468 -0.113243 -0.700341 4.288686 -14.091450 -0.387403 -0.206478 -11.132846 14.178151 11.387063 -11.894509 4.139691 -24.944841 32.293083 -6.808884 
69.812561 -16.423452 84.074448 -0.108784 -1.800733 -110.055091 -2.470302 0.807615 -0.405935 -1.303502 0.225429 -0.346106 -1.303503 0.225429 -0.346106 -0.977499 0.169810 -0.259100 1.020389 -15.848028 -0.641704 1.666549 6.755121 -0.822091 9.169331 0.482376 -3.806734 61.256463 -29.050796 -17.642174 47.948447 -74.303306 29.612903 -13.415229 16.922087 36.556979 -9.786912 0.538358 -6.227703 -56.319220 -23.494252 17.220597 -86.184030 -55.580316 2.510913 10.948859 18.591947 -25.091952 1.369390 10.261829 -13.568483 3.819056 -3.799175 -19.903557 6.672057 -1.543416 0.615790 -0.883441 -0.198120 -0.796364 4.431108 -14.232219 -0.170381 -0.230905 -10.860107 14.314598 11.585994 -12.833766 3.715475 -25.532839 33.230786 -7.199829 
70.145317 -16.850716 84.057838 0.036647 -1.774324 -110.211748 -2.385710 0.779042 -0.571259 -1.275122 0.211364 -0.421135 -1.275122 0.211363 -0.421135 -0.956196 0.159402 -0.315413 0.856645 -15.847482 -0.383330 1.456053 6.754552 -0.400559 9.154895 0.435230 -3.771633 61.076774 -29.007130 -17.626502 46.776431 -74.568611 30.789151 -13.329600 16.827537 36.394905 -9.869833 0.516150 -6.161022 -56.437232 -23.519673 17.310464 -86.162741 -55.488617 2.591905 11.090807 18.559215 -25.458268 1.587231 10.064973 -13.425053 3.826905 -3.852123 -19.788004 7.036722 -1.109972 0.730611 -1.022408 -0.237334 -0.802866 4.624576 -14.437394 0.118628 -0.211933 -10.575429 14.352574 11.832771 -13.753103 3.357656 -26.230638 34.099006 -7.652173 
70.469437 -17.281130 84.033432 0.215498 -1.762945 -110.395726 -2.276252 0.783817 -0.744540 -1.233818 0.204508 -0.504439 -1.233820 0.204509 -0.504443 -0.925196 0.154401 -0.377921 0.674489 -15.862607 -0.091166 1.223523 6.724857 0.077053 9.120653 0.359340 -3.729904 60.834535 -28.973833 -17.529506 45.902601 -74.814593 31.701476 -13.270342 16.739812 36.248521 -9.969619 0.456074 -6.060023 -56.563426 -23.546633 17.397976 -86.113625 -55.359482 2.633196 11.218044 18.445563 -25.848465 1.787531 9.950796 -13.278382 3.887265 -4.056864 -19.721357 7.485505 -0.621836 0.945124 -1.191661 -0.254511 -0.794932 4.816237 -14.605817 0.541184 -0.167090 -10.331635 14.292164 12.116250 -14.608277 3.097386 -27.020922 34.881783 -8.123611 
70.777275 -17.710953 83.993660 0.406886 -1.777981 -110.648825 -2.158677 0.792509 -0.901743 -1.183417 0.196323 -0.581697 -1.183417 0.196323 -0.581698 -0.887376 0.148371 -0.435895 0.484935 -15.879748 0.237058 0.990303 6.691293 0.619121 9.068259 0.262929 -3.707718 60.553991 -28.949258 -17.354409 45.373438 -75.011794 32.302512 -13.213918 16.660510 36.122934 -10.036037 0.297458 -5.957757 -56.719738 -23.521085 17.444054 -85.963798 -55.250305 2.574923 11.320270 18.298044 -26.220415 1.981285 9.914597 -12.938193 4.000561 -4.402597 -19.732613 7.996297 -0.091839 1.209817 -1.366571 -0.252099 -0.797036 5.006337 -14.748889 1.054512 -0.095980 -10.162789 14.223195 12.389148 -15.375890 2.882287 -27.850433 35.592372 -8.585713 
71.053780 -18.151306 83.935715 0.610452 -1.822113 -111.000389 -2.059460 0.791682 -1.008243 -1.132332 0.176524 -0.648024 -1.132332 0.176524 -0.648026 -0.849062 0.133594 -0.485693 0.317046 -15.897735 0.590079 0.806390 6.655771 1.215251 9.033510 0.164041 -3.700582 60.268749 -28.923334 -17.139023 45.000899 -75.150358 32.760009 -13.186085 16.583870 36.009013 -10.056999 0.137840 -5.856642 -56.895264 -23.502018 17.485660 -85.690734 -55.150974 2.394884 11.375479 18.091182 -26.586786 2.208148 9.928488 -12.271006 4.150021 -4.810617 -19.626695 8.485574 0.488880 1.265643 -1.490595 -0.243027 -0.800767 5.218894 -14.872416 1.584750 -0.036695 -10.057933 14.217878 12.666146 -16.059180 2.671211 -28.701404 36.243644 -9.036742 
71.307266 -18.632040 83.858147 0.759798 -1.926311 -111.397469 -1.977965 0.720525 -1.087841 -1.088403 0.135040 -0.708300 -1.088402 0.135040 -0.708305 -0.816146 0.102542 -0.530986 0.194468 -15.922458 0.954340 0.710722 6.606739 1.848740 9.018390 0.089131 -3.686592 60.046440 -28.877056 -16.959189 44.402677 -75.261219 33.382526 -13.180365 16.500347 35.928356 -10.060812 0.022914 -5.770256 -57.053977 -23.471808 17.528509 -85.383334 -55.053101 2.189525 11.423672 17.832796 -26.919833 2.548912 9.855747 -11.289634 4.265731 -5.150816 -19.414024 8.870473 1.126735 1.045694 -1.520939 -0.265722 -0.780466 5.495858 -15.032898 1.947169 -0.008022 -10.049916 14.297520 12.916085 -16.703762 2.544073 -29.600780 36.873794 -9.511277 
71.538910 -19.160213 83.761269 0.876833 -2.054106 -111.822580 -1.943608 0.611999 -1.137504 -1.057544 0.070718 -0.762394 -1.057544 0.070717 -0.762395 -0.793072 0.054357 -0.571675 0.121134 -15.955180 1.319512 0.706680 6.541326 2.501631 8.999202 0.033743 -3.700574 59.913969 -28.796204 -16.805728 43.626669 -75.352928 34.095867 -13.159985 16.428237 35.905908 -10.040034 -0.108635 -5.720398 -57.137244 -23.361928 17.482653 -85.151313 -54.989774 2.057493 11.524384 17.595904 -27.205304 2.969834 9.675262 -10.139384 4.381390 -5.341703 -19.244743 9.111843 1.794066 0.831623 -1.489117 -0.344801 -0.822286 5.830555 -15.165132 2.085400 -0.031655 -10.198644 14.436737 13.179933 -17.313520 2.459468 -30.561381 37.539157 -10.021382 
71.753723 -19.730968 83.645699 0.972538 -2.190115 -112.237473 -1.958834 0.479529 -1.195557 -1.042731 -0.002645 -0.810515 -1.042731 -0.002645 -0.810518 -0.782054 -0.000601 -0.607895 0.090905 -16.000188 1.688196 0.783466 6.450957 3.176299 8.972119 -0.037361 -3.738609 59.859313 -28.699543 -16.662730 42.786958 -75.379614 34.810609 -13.103836 16.340705 35.935186 -10.039330 -0.209598 -5.704378 -57.175397 -23.261597 17.422498 -84.941441 -54.963290 1.937528 11.701616 17.446719 -27.449506 3.462521 9.428933 -9.049646 4.471984 -5.419081 -19.182998 9.140101 2.443431 0.742445 -1.364619 -0.451438 -0.920262 6.227619 -15.188911 1.994495 -0.115104 -10.611186 14.609293 13.379989 -17.926929 2.486092 -31.585254 38.293681 -10.584393 
71.925514 -20.338419 83.514275 1.116315 -2.287747 -112.665425 -2.020160 0.404436 -1.256324 -1.043239 -0.080974 -0.852486 -1.043239 -0.080974 -0.852487 -0.782544 -0.059275 -0.639505 0.080434 -16.048342 2.074553 0.902764 6.352252 3.890604 8.926653 -0.107013 -3.771699 59.841446 -28.603133 -16.526882 42.152086 -75.330156 35.291068 -13.041018 16.212117 36.025293 -10.091844 -0.226785 -5.665743 -57.199508 -23.267909 17.398244 -84.728135 -54.951467 1.804489 11.980975 17.348426 -27.666941 4.006066 9.180687 -8.303012 4.568809 -5.336554 -19.037353 8.831962 3.031879 0.819886 -1.127984 -0.590057 -1.102275 6.668499 -14.989458 1.783190 -0.239320 -11.325521 14.832516 13.598539 -18.522515 2.401004 -32.673593 39.187862 -11.190301 
72.085373 -20.896833 83.154510 1.104614 -1.984153 -112.832246 -2.518064 0.338353 -1.607322 -1.063463 -0.167967 -0.889176 -1.063463 -0.167967 -0.889180 -0.797842 -0.124428 -0.667177 0.073333 -16.094190 2.490549 1.038446 6.255033 4.660898 8.860317 -0.155105 -3.780480 59.826365 -28.547681 -16.372180 41.580091 -75.244403 35.692052 -12.914800 16.098554 36.151928 -10.201152 -0.236918 -5.621576 -57.185359 -23.307672 17.390785 -84.528714 -54.955746 1.656337 12.435664 17.250206 -27.812150 4.108966 8.961730 -8.272721 4.648970 -5.206393 -18.887990 8.048429 3.284580 0.986703 -0.625744 -0.490856 -1.101149 6.794104 -14.550046 1.281840 -0.349424 -12.442650 15.051229 13.797628 -18.871664 2.048768 -33.659445 40.163336 -11.554149 
